<svg xmlns="http://www.w3.org/2000/svg" xmlns:xlink="http://www.w3.org/1999/xlink" width="120" zoomAndPan="magnify" viewBox="0 0 90 44.999999" height="60" preserveAspectRatio="xMidYMid meet" version="1.0"><defs><g/><clipPath id="909a11de0b"><path d="M 3.613281 10.078125 L 28.363281 10.078125 L 28.363281 34.828125 L 3.613281 34.828125 Z M 3.613281 10.078125 " clip-rule="nonzero"/></clipPath></defs><g clip-path="url(#909a11de0b)"><path fill="#f2cb05" d="M 15.988281 34.828125 C 9.164062 34.828125 3.613281 29.277344 3.613281 22.453125 C 3.613281 15.628906 9.164062 10.078125 15.988281 10.078125 C 22.8125 10.078125 28.363281 15.628906 28.363281 22.453125 C 28.363281 29.277344 22.8125 34.828125 15.988281 34.828125 Z M 15.988281 11.257812 C 9.8125 11.257812 4.792969 16.277344 4.792969 22.453125 C 4.792969 28.625 9.8125 33.648438 15.988281 33.648438 C 22.160156 33.648438 27.183594 28.625 27.183594 22.453125 C 27.183594 16.277344 22.160156 11.257812 15.988281 11.257812 Z M 15.988281 11.257812 " fill-opacity="1" fill-rule="nonzero"/></g><path fill="#f2cb05" d="M 13.839844 24.503906 L 13.617188 24.117188 L 13.117188 24.40625 L 13.117188 23.832031 L 12.671875 23.832031 L 12.671875 24.40625 L 12.171875 24.121094 L 11.949219 24.503906 L 12.449219 24.792969 L 11.949219 25.082031 L 12.171875 25.464844 L 12.671875 25.175781 L 12.671875 25.757812 L 13.117188 25.757812 L 13.117188 25.175781 L 13.621094 25.464844 L 13.84375 25.082031 L 13.339844 24.792969 Z M 13.839844 24.503906 " fill-opacity="1" fill-rule="nonzero"/><path fill="#f2cb05" d="M 16.933594 24.503906 L 16.710938 24.121094 L 16.210938 24.40625 L 16.210938 23.832031 L 15.765625 23.832031 L 15.765625 24.40625 L 15.265625 24.121094 L 15.042969 24.503906 L 15.542969 24.792969 L 15.042969 25.082031 L 15.265625 25.46875 L 15.765625 25.179688 L 15.765625 25.757812 L 16.210938 25.757812 L 16.210938 25.179688 L 16.710938 25.464844 L 16.933594 25.082031 L 16.433594 24.792969 Z M 16.933594 24.503906 " fill-opacity="1" fill-rule="nonzero"/><path fill="#f2cb05" d="M 20.027344 24.503906 L 19.804688 24.121094 L 19.304688 24.410156 L 19.304688 23.832031 L 18.859375 23.832031 L 18.859375 24.410156 L 18.355469 24.121094 L 18.132812 24.503906 L 18.636719 24.792969 L 18.132812 25.082031 L 18.355469 25.46875 L 18.859375 25.179688 L 18.859375 25.757812 L 19.304688 25.757812 L 19.304688 25.179688 L 19.804688 25.464844 L 20.027344 25.082031 L 19.527344 24.792969 Z M 20.027344 24.503906 " fill-opacity="1" fill-rule="nonzero"/><path fill="#f2cb05" d="M 20.394531 19.617188 L 19.679688 19.617188 L 19.679688 18.195312 C 19.679688 17.210938 19.292969 16.285156 18.597656 15.59375 C 17.898438 14.894531 16.972656 14.507812 15.992188 14.507812 C 13.957031 14.507812 12.300781 16.160156 12.300781 18.195312 L 12.300781 19.617188 L 11.566406 19.617188 C 10.636719 19.617188 9.882812 20.371094 9.882812 21.300781 L 9.882812 28.285156 C 9.882812 29.214844 10.636719 29.972656 11.566406 29.972656 L 20.402344 29.972656 C 21.335938 29.972656 22.09375 29.210938 22.09375 28.277344 L 22.09375 21.316406 C 22.09375 20.378906 21.332031 19.617188 20.394531 19.617188 Z M 13.429688 18.195312 C 13.429688 16.789062 14.578125 15.640625 15.988281 15.640625 C 16.664062 15.640625 17.308594 15.910156 17.792969 16.390625 C 18.273438 16.871094 18.539062 17.511719 18.539062 18.195312 L 18.539062 19.617188 L 13.429688 19.617188 Z M 20.960938 28.285156 C 20.960938 28.59375 20.710938 28.839844 20.402344 28.839844 L 11.566406 28.839844 C 11.261719 28.839844 11.015625 28.59375 11.015625 28.289062 L 11.015625 21.304688 C 11.015625 21 11.265625 20.753906 11.566406 20.753906 L 20.394531 20.753906 C 20.707031 20.753906 20.960938 21.007812 20.960938 21.320312 Z M 20.960938 28.285156 " fill-opacity="1" fill-rule="nonzero"/><g fill="#f2cb05" fill-opacity="1"><g transform="translate(32.762499, 23.502061)"><g><path d="M 2.390625 0.101562 C 3.601562 0.101562 4.347656 -0.472656 4.347656 -1.4375 C 4.347656 -2.246094 3.8125 -2.726562 2.546875 -3.027344 C 1.765625 -3.207031 1.496094 -3.40625 1.496094 -3.71875 C 1.496094 -4.054688 1.792969 -4.257812 2.28125 -4.257812 C 2.816406 -4.257812 3.136719 -3.980469 3.136719 -3.523438 L 4.25 -3.523438 C 4.25 -4.550781 3.476562 -5.207031 2.269531 -5.207031 C 1.09375 -5.207031 0.363281 -4.628906 0.363281 -3.695312 C 0.363281 -2.867188 0.925781 -2.371094 2.121094 -2.113281 C 2.84375 -1.960938 3.171875 -1.75 3.171875 -1.394531 C 3.171875 -1.050781 2.867188 -0.851562 2.382812 -0.851562 C 1.824219 -0.851562 1.457031 -1.136719 1.457031 -1.625 L 0.320312 -1.625 C 0.320312 -0.570312 1.109375 0.101562 2.390625 0.101562 Z M 2.390625 0.101562 "/></g></g></g><g fill="#f2cb05" fill-opacity="1"><g transform="translate(37.719803, 23.502061)"><g><path d="M 0.613281 0 L 4.046875 0 L 4.046875 -0.984375 L 1.765625 -0.984375 L 1.765625 -2.101562 L 3.769531 -2.101562 L 3.769531 -3.070312 L 1.765625 -3.070312 L 1.765625 -4.128906 L 3.96875 -4.128906 L 3.96875 -5.105469 L 0.613281 -5.105469 Z M 0.613281 0 "/></g></g></g><g fill="#f2cb05" fill-opacity="1"><g transform="translate(42.421957, 23.502061)"><g><path d="M 2.953125 0.101562 C 4.296875 0.101562 5.335938 -0.714844 5.59375 -1.953125 L 4.398438 -1.953125 C 4.1875 -1.371094 3.644531 -1 2.976562 -1 C 2.109375 -1 1.496094 -1.632812 1.496094 -2.550781 C 1.496094 -3.472656 2.113281 -4.105469 2.984375 -4.105469 C 3.632812 -4.105469 4.164062 -3.753906 4.359375 -3.195312 L 5.554688 -3.195312 C 5.265625 -4.417969 4.242188 -5.207031 2.945312 -5.207031 C 1.398438 -5.207031 0.3125 -4.113281 0.3125 -2.550781 C 0.3125 -0.992188 1.398438 0.101562 2.953125 0.101562 Z M 2.953125 0.101562 "/></g></g></g><g fill="#f2cb05" fill-opacity="1"><g transform="translate(48.589404, 23.502061)"><g><path d="M 2.699219 0.101562 C 4.023438 0.101562 4.835938 -0.730469 4.835938 -2.101562 L 4.835938 -5.105469 L 3.675781 -5.105469 L 3.675781 -2.179688 C 3.675781 -1.398438 3.347656 -1 2.699219 -1 C 2.050781 -1 1.722656 -1.398438 1.722656 -2.179688 L 1.722656 -5.105469 L 0.5625 -5.105469 L 0.5625 -2.101562 C 0.5625 -0.730469 1.371094 0.101562 2.699219 0.101562 Z M 2.699219 0.101562 "/></g></g></g><g fill="#f2cb05" fill-opacity="1"><g transform="translate(54.268421, 23.502061)"><g><path d="M 0.613281 0 L 1.773438 0 L 1.773438 -1.589844 L 2.539062 -1.589844 L 3.449219 0 L 4.789062 0 L 3.734375 -1.773438 C 4.347656 -2.042969 4.703125 -2.597656 4.703125 -3.347656 C 4.703125 -4.433594 3.960938 -5.105469 2.792969 -5.105469 L 0.613281 -5.105469 Z M 1.757812 -2.566406 L 1.757812 -4.113281 L 2.640625 -4.113281 C 3.207031 -4.113281 3.53125 -3.835938 3.53125 -3.339844 C 3.53125 -2.84375 3.207031 -2.566406 2.640625 -2.566406 Z M 1.757812 -2.566406 "/></g></g></g><g fill="#f2cb05" fill-opacity="1"><g transform="translate(59.684997, 23.502061)"><g><path d="M 0.613281 0 L 4.046875 0 L 4.046875 -0.984375 L 1.765625 -0.984375 L 1.765625 -2.101562 L 3.769531 -2.101562 L 3.769531 -3.070312 L 1.765625 -3.070312 L 1.765625 -4.128906 L 3.96875 -4.128906 L 3.96875 -5.105469 L 0.613281 -5.105469 Z M 0.613281 0 "/></g></g></g><g fill="#f2cb05" fill-opacity="1"><g transform="translate(64.38715, 23.502061)"><g><path d="M 0.613281 0 L 1.773438 0 L 1.773438 -1.421875 L 2.609375 -1.421875 C 3.84375 -1.421875 4.636719 -2.144531 4.636719 -3.257812 C 4.636719 -4.382812 3.84375 -5.105469 2.609375 -5.105469 L 0.613281 -5.105469 Z M 1.765625 -2.421875 L 1.765625 -4.089844 L 2.515625 -4.089844 C 3.121094 -4.089844 3.457031 -3.785156 3.457031 -3.253906 C 3.457031 -2.71875 3.121094 -2.421875 2.515625 -2.421875 Z M 1.765625 -2.421875 "/></g></g></g><g fill="#f2cb05" fill-opacity="1"><g transform="translate(69.519415, 23.502061)"><g><path d="M 0.0664062 0 L 1.304688 0 L 1.648438 -0.882812 L 3.675781 -0.882812 L 4.019531 0 L 5.257812 0 L 3.230469 -5.105469 L 2.09375 -5.105469 Z M 1.945312 -1.792969 L 2.660156 -3.660156 L 3.382812 -1.792969 Z M 1.945312 -1.792969 "/></g></g></g><g fill="#f2cb05" fill-opacity="1"><g transform="translate(75.125533, 23.502061)"><g><path d="M 2.390625 0.101562 C 3.601562 0.101562 4.347656 -0.472656 4.347656 -1.4375 C 4.347656 -2.246094 3.8125 -2.726562 2.546875 -3.027344 C 1.765625 -3.207031 1.496094 -3.40625 1.496094 -3.71875 C 1.496094 -4.054688 1.792969 -4.257812 2.28125 -4.257812 C 2.816406 -4.257812 3.136719 -3.980469 3.136719 -3.523438 L 4.25 -3.523438 C 4.25 -4.550781 3.476562 -5.207031 2.269531 -5.207031 C 1.09375 -5.207031 0.363281 -4.628906 0.363281 -3.695312 C 0.363281 -2.867188 0.925781 -2.371094 2.121094 -2.113281 C 2.84375 -1.960938 3.171875 -1.75 3.171875 -1.394531 C 3.171875 -1.050781 2.867188 -0.851562 2.382812 -0.851562 C 1.824219 -0.851562 1.457031 -1.136719 1.457031 -1.625 L 0.320312 -1.625 C 0.320312 -0.570312 1.109375 0.101562 2.390625 0.101562 Z M 2.390625 0.101562 "/></g></g></g><g fill="#f2cb05" fill-opacity="1"><g transform="translate(80.082835, 23.502061)"><g><path d="M 2.390625 0.101562 C 3.601562 0.101562 4.347656 -0.472656 4.347656 -1.4375 C 4.347656 -2.246094 3.8125 -2.726562 2.546875 -3.027344 C 1.765625 -3.207031 1.496094 -3.40625 1.496094 -3.71875 C 1.496094 -4.054688 1.792969 -4.257812 2.28125 -4.257812 C 2.816406 -4.257812 3.136719 -3.980469 3.136719 -3.523438 L 4.25 -3.523438 C 4.25 -4.550781 3.476562 -5.207031 2.269531 -5.207031 C 1.09375 -5.207031 0.363281 -4.628906 0.363281 -3.695312 C 0.363281 -2.867188 0.925781 -2.371094 2.121094 -2.113281 C 2.84375 -1.960938 3.171875 -1.75 3.171875 -1.394531 C 3.171875 -1.050781 2.867188 -0.851562 2.382812 -0.851562 C 1.824219 -0.851562 1.457031 -1.136719 1.457031 -1.625 L 0.320312 -1.625 C 0.320312 -0.570312 1.109375 0.101562 2.390625 0.101562 Z M 2.390625 0.101562 "/></g></g></g><g fill="#f2cb05" fill-opacity="1"><g transform="translate(46.565842, 27.525486)"><g><path d="M 0.703125 0.015625 C 0.585938 0.015625 0.472656 0 0.359375 -0.03125 C 0.242188 -0.0703125 0.15625 -0.125 0.09375 -0.1875 L 0.171875 -0.359375 C 0.234375 -0.304688 0.3125 -0.257812 0.40625 -0.21875 C 0.507812 -0.1875 0.609375 -0.171875 0.703125 -0.171875 C 0.835938 -0.171875 0.9375 -0.191406 1 -0.234375 C 1.070312 -0.285156 1.109375 -0.347656 1.109375 -0.421875 C 1.109375 -0.472656 1.085938 -0.515625 1.046875 -0.546875 C 1.015625 -0.585938 0.972656 -0.617188 0.921875 -0.640625 C 0.867188 -0.660156 0.796875 -0.679688 0.703125 -0.703125 C 0.578125 -0.734375 0.476562 -0.757812 0.40625 -0.78125 C 0.332031 -0.8125 0.269531 -0.859375 0.21875 -0.921875 C 0.164062 -0.984375 0.140625 -1.066406 0.140625 -1.171875 C 0.140625 -1.253906 0.160156 -1.328125 0.203125 -1.390625 C 0.242188 -1.460938 0.3125 -1.519531 0.40625 -1.5625 C 0.5 -1.601562 0.613281 -1.625 0.75 -1.625 C 0.84375 -1.625 0.9375 -1.609375 1.03125 -1.578125 C 1.125 -1.554688 1.203125 -1.523438 1.265625 -1.484375 L 1.1875 -1.296875 C 1.125 -1.335938 1.050781 -1.367188 0.96875 -1.390625 C 0.894531 -1.421875 0.820312 -1.4375 0.75 -1.4375 C 0.613281 -1.4375 0.515625 -1.410156 0.453125 -1.359375 C 0.390625 -1.304688 0.359375 -1.242188 0.359375 -1.171875 C 0.359375 -1.117188 0.375 -1.070312 0.40625 -1.03125 C 0.445312 -1 0.492188 -0.972656 0.546875 -0.953125 C 0.597656 -0.941406 0.671875 -0.925781 0.765625 -0.90625 C 0.890625 -0.875 0.988281 -0.84375 1.0625 -0.8125 C 1.132812 -0.78125 1.195312 -0.734375 1.25 -0.671875 C 1.300781 -0.617188 1.328125 -0.539062 1.328125 -0.4375 C 1.328125 -0.351562 1.300781 -0.273438 1.25 -0.203125 C 1.207031 -0.140625 1.140625 -0.0859375 1.046875 -0.046875 C 0.960938 -0.00390625 0.847656 0.015625 0.703125 0.015625 Z M 0.703125 0.015625 "/></g></g></g><g fill="#f2cb05" fill-opacity="1"><g transform="translate(49.313796, 27.525486)"><g><path d="M 0.96875 0.015625 C 0.800781 0.015625 0.648438 -0.015625 0.515625 -0.078125 C 0.390625 -0.148438 0.289062 -0.25 0.21875 -0.375 C 0.144531 -0.507812 0.109375 -0.648438 0.109375 -0.796875 C 0.109375 -0.953125 0.144531 -1.09375 0.21875 -1.21875 C 0.289062 -1.34375 0.390625 -1.441406 0.515625 -1.515625 C 0.648438 -1.585938 0.800781 -1.625 0.96875 -1.625 C 1.125 -1.625 1.265625 -1.585938 1.390625 -1.515625 C 1.523438 -1.441406 1.628906 -1.34375 1.703125 -1.21875 C 1.773438 -1.09375 1.8125 -0.953125 1.8125 -0.796875 C 1.8125 -0.640625 1.773438 -0.5 1.703125 -0.375 C 1.628906 -0.25 1.523438 -0.148438 1.390625 -0.078125 C 1.265625 -0.015625 1.125 0.015625 0.96875 0.015625 Z M 0.96875 -0.1875 C 1.082031 -0.1875 1.1875 -0.210938 1.28125 -0.265625 C 1.375 -0.316406 1.445312 -0.390625 1.5 -0.484375 C 1.5625 -0.578125 1.59375 -0.679688 1.59375 -0.796875 C 1.59375 -0.921875 1.5625 -1.03125 1.5 -1.125 C 1.445312 -1.21875 1.375 -1.289062 1.28125 -1.34375 C 1.1875 -1.394531 1.082031 -1.421875 0.96875 -1.421875 C 0.851562 -1.421875 0.742188 -1.394531 0.640625 -1.34375 C 0.546875 -1.289062 0.472656 -1.21875 0.421875 -1.125 C 0.367188 -1.03125 0.34375 -0.921875 0.34375 -0.796875 C 0.34375 -0.679688 0.367188 -0.578125 0.421875 -0.484375 C 0.472656 -0.390625 0.546875 -0.316406 0.640625 -0.265625 C 0.742188 -0.210938 0.851562 -0.1875 0.96875 -0.1875 Z M 0.96875 -0.1875 "/></g></g></g><g fill="#f2cb05" fill-opacity="1"><g transform="translate(52.563158, 27.525486)"><g><path d="M 0.234375 -1.609375 L 0.46875 -1.609375 L 0.46875 -0.203125 L 1.34375 -0.203125 L 1.34375 0 L 0.234375 0 Z M 0.234375 -1.609375 "/></g></g></g><g fill="#f2cb05" fill-opacity="1"><g transform="translate(55.249294, 27.525486)"><g><path d="M 0.90625 0.015625 C 0.6875 0.015625 0.519531 -0.0390625 0.40625 -0.15625 C 0.289062 -0.28125 0.234375 -0.457031 0.234375 -0.6875 L 0.234375 -1.609375 L 0.453125 -1.609375 L 0.453125 -0.703125 C 0.453125 -0.359375 0.601562 -0.1875 0.90625 -0.1875 C 1.050781 -0.1875 1.160156 -0.226562 1.234375 -0.3125 C 1.316406 -0.394531 1.359375 -0.523438 1.359375 -0.703125 L 1.359375 -1.609375 L 1.59375 -1.609375 L 1.59375 -0.6875 C 1.59375 -0.457031 1.53125 -0.28125 1.40625 -0.15625 C 1.289062 -0.0390625 1.125 0.015625 0.90625 0.015625 Z M 0.90625 0.015625 "/></g></g></g><g fill="#f2cb05" fill-opacity="1"><g transform="translate(58.386469, 27.525486)"><g><path d="M 0.5625 -1.40625 L 0.015625 -1.40625 L 0.015625 -1.609375 L 1.34375 -1.609375 L 1.34375 -1.40625 L 0.78125 -1.40625 L 0.78125 0 L 0.5625 0 Z M 0.5625 -1.40625 "/></g></g></g><g fill="#f2cb05" fill-opacity="1"><g transform="translate(61.056578, 27.525486)"><g><path d="M 0.234375 -1.609375 L 0.46875 -1.609375 L 0.46875 0 L 0.234375 0 Z M 0.234375 -1.609375 "/></g></g></g><g fill="#f2cb05" fill-opacity="1"><g transform="translate(63.092488, 27.525486)"><g><path d="M 0.96875 0.015625 C 0.800781 0.015625 0.648438 -0.015625 0.515625 -0.078125 C 0.390625 -0.148438 0.289062 -0.25 0.21875 -0.375 C 0.144531 -0.507812 0.109375 -0.648438 0.109375 -0.796875 C 0.109375 -0.953125 0.144531 -1.09375 0.21875 -1.21875 C 0.289062 -1.34375 0.390625 -1.441406 0.515625 -1.515625 C 0.648438 -1.585938 0.800781 -1.625 0.96875 -1.625 C 1.125 -1.625 1.265625 -1.585938 1.390625 -1.515625 C 1.523438 -1.441406 1.628906 -1.34375 1.703125 -1.21875 C 1.773438 -1.09375 1.8125 -0.953125 1.8125 -0.796875 C 1.8125 -0.640625 1.773438 -0.5 1.703125 -0.375 C 1.628906 -0.25 1.523438 -0.148438 1.390625 -0.078125 C 1.265625 -0.015625 1.125 0.015625 0.96875 0.015625 Z M 0.96875 -0.1875 C 1.082031 -0.1875 1.1875 -0.210938 1.28125 -0.265625 C 1.375 -0.316406 1.445312 -0.390625 1.5 -0.484375 C 1.5625 -0.578125 1.59375 -0.679688 1.59375 -0.796875 C 1.59375 -0.921875 1.5625 -1.03125 1.5 -1.125 C 1.445312 -1.21875 1.375 -1.289062 1.28125 -1.34375 C 1.1875 -1.394531 1.082031 -1.421875 0.96875 -1.421875 C 0.851562 -1.421875 0.742188 -1.394531 0.640625 -1.34375 C 0.546875 -1.289062 0.472656 -1.21875 0.421875 -1.125 C 0.367188 -1.03125 0.34375 -0.921875 0.34375 -0.796875 C 0.34375 -0.679688 0.367188 -0.578125 0.421875 -0.484375 C 0.472656 -0.390625 0.546875 -0.316406 0.640625 -0.265625 C 0.742188 -0.210938 0.851562 -0.1875 0.96875 -0.1875 Z M 0.96875 -0.1875 "/></g></g></g><g fill="#f2cb05" fill-opacity="1"><g transform="translate(66.341849, 27.525486)"><g><path d="M 1.625 -1.609375 L 1.625 0 L 1.4375 0 L 0.46875 -1.203125 L 0.46875 0 L 0.234375 0 L 0.234375 -1.609375 L 0.421875 -1.609375 L 1.390625 -0.40625 L 1.390625 -1.609375 Z M 1.625 -1.609375 "/></g></g></g><g fill="#f2cb05" fill-opacity="1"><g transform="translate(69.527106, 27.525486)"><g><path d="M 0.703125 0.015625 C 0.585938 0.015625 0.472656 0 0.359375 -0.03125 C 0.242188 -0.0703125 0.15625 -0.125 0.09375 -0.1875 L 0.171875 -0.359375 C 0.234375 -0.304688 0.3125 -0.257812 0.40625 -0.21875 C 0.507812 -0.1875 0.609375 -0.171875 0.703125 -0.171875 C 0.835938 -0.171875 0.9375 -0.191406 1 -0.234375 C 1.070312 -0.285156 1.109375 -0.347656 1.109375 -0.421875 C 1.109375 -0.472656 1.085938 -0.515625 1.046875 -0.546875 C 1.015625 -0.585938 0.972656 -0.617188 0.921875 -0.640625 C 0.867188 -0.660156 0.796875 -0.679688 0.703125 -0.703125 C 0.578125 -0.734375 0.476562 -0.757812 0.40625 -0.78125 C 0.332031 -0.8125 0.269531 -0.859375 0.21875 -0.921875 C 0.164062 -0.984375 0.140625 -1.066406 0.140625 -1.171875 C 0.140625 -1.253906 0.160156 -1.328125 0.203125 -1.390625 C 0.242188 -1.460938 0.3125 -1.519531 0.40625 -1.5625 C 0.5 -1.601562 0.613281 -1.625 0.75 -1.625 C 0.84375 -1.625 0.9375 -1.609375 1.03125 -1.578125 C 1.125 -1.554688 1.203125 -1.523438 1.265625 -1.484375 L 1.1875 -1.296875 C 1.125 -1.335938 1.050781 -1.367188 0.96875 -1.390625 C 0.894531 -1.421875 0.820312 -1.4375 0.75 -1.4375 C 0.613281 -1.4375 0.515625 -1.410156 0.453125 -1.359375 C 0.390625 -1.304688 0.359375 -1.242188 0.359375 -1.171875 C 0.359375 -1.117188 0.375 -1.070312 0.40625 -1.03125 C 0.445312 -1 0.492188 -0.972656 0.546875 -0.953125 C 0.597656 -0.941406 0.671875 -0.925781 0.765625 -0.90625 C 0.890625 -0.875 0.988281 -0.84375 1.0625 -0.8125 C 1.132812 -0.78125 1.195312 -0.734375 1.25 -0.671875 C 1.300781 -0.617188 1.328125 -0.539062 1.328125 -0.4375 C 1.328125 -0.351562 1.300781 -0.273438 1.25 -0.203125 C 1.207031 -0.140625 1.140625 -0.0859375 1.046875 -0.046875 C 0.960938 -0.00390625 0.847656 0.015625 0.703125 0.015625 Z M 0.703125 0.015625 "/></g></g></g></svg>