<svg xmlns="http://www.w3.org/2000/svg" xmlns:xlink="http://www.w3.org/1999/xlink" width="500" zoomAndPan="magnify" viewBox="0 0 375 374.999991" height="500" preserveAspectRatio="xMidYMid meet" version="1.0"><defs><g/><clipPath id="85fb0d6e4f"><path d="M 133.265625 106.828125 L 242.015625 106.828125 L 242.015625 215.578125 L 133.265625 215.578125 Z M 133.265625 106.828125 " clip-rule="nonzero"/></clipPath></defs><g clip-path="url(#85fb0d6e4f)"><path fill="#000000" d="M 187.640625 215.578125 C 157.65625 215.578125 133.265625 191.183594 133.265625 161.203125 C 133.265625 131.21875 157.65625 106.828125 187.640625 106.828125 C 217.621094 106.828125 242.015625 131.21875 242.015625 161.203125 C 242.015625 191.183594 217.621094 215.578125 187.640625 215.578125 Z M 187.640625 112.003906 C 160.511719 112.003906 138.441406 134.074219 138.441406 161.203125 C 138.441406 188.328125 160.511719 210.398438 187.640625 210.398438 C 214.765625 210.398438 236.835938 188.328125 236.835938 161.203125 C 236.835938 134.074219 214.765625 112.003906 187.640625 112.003906 Z M 187.640625 112.003906 " fill-opacity="1" fill-rule="nonzero"/></g><path fill="#000000" d="M 178.207031 170.214844 L 177.230469 168.523438 L 175.027344 169.792969 L 175.027344 167.261719 L 173.070312 167.261719 L 173.070312 169.792969 L 170.875 168.523438 L 169.894531 170.214844 L 172.09375 171.484375 L 169.890625 172.753906 L 170.871094 174.441406 L 173.070312 173.175781 L 173.070312 175.714844 L 175.027344 175.714844 L 175.027344 173.175781 L 177.234375 174.445312 L 178.210938 172.753906 L 176.007812 171.484375 Z M 178.207031 170.214844 " fill-opacity="1" fill-rule="nonzero"/><path fill="#000000" d="M 191.796875 170.21875 L 190.816406 168.527344 L 188.617188 169.792969 L 188.617188 167.261719 L 186.660156 167.261719 L 186.660156 169.792969 L 184.460938 168.527344 L 183.484375 170.21875 L 185.683594 171.484375 L 183.480469 172.753906 L 184.457031 174.445312 L 186.660156 173.175781 L 186.660156 175.714844 L 188.617188 175.714844 L 188.617188 173.175781 L 190.820312 174.445312 L 191.800781 172.753906 L 189.597656 171.484375 Z M 191.796875 170.21875 " fill-opacity="1" fill-rule="nonzero"/><path fill="#000000" d="M 205.386719 170.21875 L 204.40625 168.527344 L 202.210938 169.796875 L 202.210938 167.261719 L 200.253906 167.261719 L 200.253906 169.796875 L 198.046875 168.523438 L 197.066406 170.214844 L 199.273438 171.488281 L 197.070312 172.757812 L 198.046875 174.449219 L 200.253906 173.179688 L 200.253906 175.714844 L 202.210938 175.714844 L 202.210938 173.179688 L 204.40625 174.445312 L 205.382812 172.753906 L 203.1875 171.488281 Z M 205.386719 170.21875 " fill-opacity="1" fill-rule="nonzero"/><path fill="#000000" d="M 206.992188 148.738281 L 203.855469 148.738281 L 203.855469 142.496094 C 203.855469 138.167969 202.160156 134.105469 199.101562 131.054688 C 196.027344 127.988281 191.957031 126.296875 187.65625 126.296875 C 178.714844 126.296875 171.4375 133.558594 171.4375 142.496094 L 171.4375 148.738281 L 168.214844 148.738281 C 164.128906 148.738281 160.804688 152.058594 160.804688 156.144531 L 160.804688 186.835938 C 160.804688 190.917969 164.128906 194.238281 168.214844 194.238281 L 207.042969 194.238281 C 211.128906 194.238281 214.46875 190.902344 214.46875 186.800781 L 214.46875 156.210938 C 214.46875 152.09375 211.113281 148.738281 206.992188 148.738281 Z M 176.40625 142.496094 C 176.40625 136.3125 181.441406 131.269531 187.636719 131.269531 C 190.613281 131.269531 193.4375 132.449219 195.5625 134.570312 C 197.691406 136.675781 198.851562 139.496094 198.851562 142.496094 L 198.851562 148.742188 L 176.40625 148.742188 Z M 209.484375 186.835938 C 209.484375 188.179688 208.390625 189.273438 207.042969 189.273438 L 168.214844 189.273438 C 166.871094 189.273438 165.789062 188.179688 165.789062 186.851562 L 165.789062 156.160156 C 165.789062 154.816406 166.886719 153.734375 168.214844 153.734375 L 206.996094 153.734375 C 208.375 153.734375 209.488281 154.847656 209.488281 156.226562 L 209.488281 186.835938 Z M 209.484375 186.835938 " fill-opacity="1" fill-rule="nonzero"/><g fill="#130c0d" fill-opacity="1"><g transform="translate(73.999879, 249.072406)"><g><path d="M 10.441406 0.445312 C 15.726562 0.445312 18.976562 -2.070312 18.976562 -6.273438 C 18.976562 -9.804688 16.652344 -11.90625 11.109375 -13.210938 C 7.703125 -14.007812 6.527344 -14.867188 6.527344 -16.238281 C 6.527344 -17.703125 7.832031 -18.59375 9.964844 -18.59375 C 12.289062 -18.59375 13.691406 -17.382812 13.691406 -15.378906 L 18.5625 -15.378906 C 18.5625 -19.867188 15.1875 -22.730469 9.902344 -22.730469 C 4.777344 -22.730469 1.59375 -20.21875 1.59375 -16.140625 C 1.59375 -12.511719 4.042969 -10.347656 9.265625 -9.234375 C 12.417969 -8.5625 13.847656 -7.640625 13.847656 -6.082031 C 13.847656 -4.585938 12.511719 -3.726562 10.410156 -3.726562 C 7.960938 -3.726562 6.367188 -4.964844 6.367188 -7.101562 L 1.402344 -7.101562 C 1.402344 -2.484375 4.839844 0.445312 10.441406 0.445312 Z M 10.441406 0.445312 "/></g></g></g><g fill="#130c0d" fill-opacity="1"><g transform="translate(95.643406, 249.072406)"><g><path d="M 2.675781 0 L 17.667969 0 L 17.667969 -4.296875 L 7.703125 -4.296875 L 7.703125 -9.167969 L 16.460938 -9.167969 L 16.460938 -13.402344 L 7.703125 -13.402344 L 7.703125 -18.019531 L 17.320312 -18.019531 L 17.320312 -22.285156 L 2.675781 -22.285156 Z M 2.675781 0 "/></g></g></g><g fill="#130c0d" fill-opacity="1"><g transform="translate(116.172953, 249.072406)"><g><path d="M 12.894531 0.445312 C 18.753906 0.445312 23.304688 -3.121094 24.417969 -8.53125 L 19.199219 -8.53125 C 18.273438 -5.984375 15.917969 -4.363281 12.988281 -4.363281 C 9.199219 -4.363281 6.527344 -7.132812 6.527344 -11.144531 C 6.527344 -15.15625 9.234375 -17.925781 13.023438 -17.925781 C 15.855469 -17.925781 18.179688 -16.394531 19.039062 -13.945312 L 24.261719 -13.945312 C 22.988281 -19.292969 18.53125 -22.730469 12.863281 -22.730469 C 6.113281 -22.730469 1.367188 -17.957031 1.367188 -11.144531 C 1.367188 -4.328125 6.113281 0.445312 12.894531 0.445312 Z M 12.894531 0.445312 "/></g></g></g><g fill="#130c0d" fill-opacity="1"><g transform="translate(143.099953, 249.072406)"><g><path d="M 11.78125 0.445312 C 17.574219 0.445312 21.109375 -3.183594 21.109375 -9.167969 L 21.109375 -22.285156 L 16.046875 -22.285156 L 16.046875 -9.519531 C 16.046875 -6.113281 14.613281 -4.363281 11.78125 -4.363281 C 8.945312 -4.363281 7.511719 -6.113281 7.511719 -9.519531 L 7.511719 -22.285156 L 2.453125 -22.285156 L 2.453125 -9.167969 C 2.453125 -3.183594 5.984375 0.445312 11.78125 0.445312 Z M 11.78125 0.445312 "/></g></g></g><g fill="#130c0d" fill-opacity="1"><g transform="translate(167.894474, 249.072406)"><g><path d="M 2.675781 0 L 7.738281 0 L 7.738281 -6.941406 L 11.078125 -6.941406 L 15.058594 0 L 20.917969 0 L 16.300781 -7.738281 C 18.976562 -8.914062 20.535156 -11.335938 20.535156 -14.613281 C 20.535156 -19.355469 17.289062 -22.285156 12.195312 -22.285156 L 2.675781 -22.285156 Z M 7.671875 -11.207031 L 7.671875 -17.957031 L 11.523438 -17.957031 C 14.007812 -17.957031 15.410156 -16.746094 15.410156 -14.582031 C 15.410156 -12.417969 14.007812 -11.207031 11.523438 -11.207031 Z M 7.671875 -11.207031 "/></g></g></g><g fill="#130c0d" fill-opacity="1"><g transform="translate(191.543179, 249.072406)"><g><path d="M 2.675781 0 L 17.667969 0 L 17.667969 -4.296875 L 7.703125 -4.296875 L 7.703125 -9.167969 L 16.460938 -9.167969 L 16.460938 -13.402344 L 7.703125 -13.402344 L 7.703125 -18.019531 L 17.320312 -18.019531 L 17.320312 -22.285156 L 2.675781 -22.285156 Z M 2.675781 0 "/></g></g></g><g fill="#130c0d" fill-opacity="1"><g transform="translate(212.072722, 249.072406)"><g><path d="M 2.675781 0 L 7.738281 0 L 7.738281 -6.207031 L 11.398438 -6.207031 C 16.777344 -6.207031 20.25 -9.359375 20.25 -14.230469 C 20.25 -19.132812 16.777344 -22.285156 11.398438 -22.285156 L 2.675781 -22.285156 Z M 7.703125 -10.570312 L 7.703125 -17.859375 L 10.984375 -17.859375 C 13.625 -17.859375 15.089844 -16.523438 15.089844 -14.199219 C 15.089844 -11.875 13.625 -10.570312 10.984375 -10.570312 Z M 7.703125 -10.570312 "/></g></g></g><g fill="#130c0d" fill-opacity="1"><g transform="translate(234.480127, 249.072406)"><g><path d="M 0.285156 0 L 5.699219 0 L 7.195312 -3.851562 L 16.046875 -3.851562 L 17.542969 0 L 22.953125 0 L 14.105469 -22.285156 L 9.136719 -22.285156 Z M 8.5 -7.832031 L 11.621094 -15.984375 L 14.773438 -7.832031 Z M 8.5 -7.832031 "/></g></g></g><g fill="#130c0d" fill-opacity="1"><g transform="translate(258.956371, 249.072406)"><g><path d="M 10.441406 0.445312 C 15.726562 0.445312 18.976562 -2.070312 18.976562 -6.273438 C 18.976562 -9.804688 16.652344 -11.90625 11.109375 -13.210938 C 7.703125 -14.007812 6.527344 -14.867188 6.527344 -16.238281 C 6.527344 -17.703125 7.832031 -18.59375 9.964844 -18.59375 C 12.289062 -18.59375 13.691406 -17.382812 13.691406 -15.378906 L 18.5625 -15.378906 C 18.5625 -19.867188 15.1875 -22.730469 9.902344 -22.730469 C 4.777344 -22.730469 1.59375 -20.21875 1.59375 -16.140625 C 1.59375 -12.511719 4.042969 -10.347656 9.265625 -9.234375 C 12.417969 -8.5625 13.847656 -7.640625 13.847656 -6.082031 C 13.847656 -4.585938 12.511719 -3.726562 10.410156 -3.726562 C 7.960938 -3.726562 6.367188 -4.964844 6.367188 -7.101562 L 1.402344 -7.101562 C 1.402344 -2.484375 4.839844 0.445312 10.441406 0.445312 Z M 10.441406 0.445312 "/></g></g></g><g fill="#130c0d" fill-opacity="1"><g transform="translate(280.599894, 249.072406)"><g><path d="M 10.441406 0.445312 C 15.726562 0.445312 18.976562 -2.070312 18.976562 -6.273438 C 18.976562 -9.804688 16.652344 -11.90625 11.109375 -13.210938 C 7.703125 -14.007812 6.527344 -14.867188 6.527344 -16.238281 C 6.527344 -17.703125 7.832031 -18.59375 9.964844 -18.59375 C 12.289062 -18.59375 13.691406 -17.382812 13.691406 -15.378906 L 18.5625 -15.378906 C 18.5625 -19.867188 15.1875 -22.730469 9.902344 -22.730469 C 4.777344 -22.730469 1.59375 -20.21875 1.59375 -16.140625 C 1.59375 -12.511719 4.042969 -10.347656 9.265625 -9.234375 C 12.417969 -8.5625 13.847656 -7.640625 13.847656 -6.082031 C 13.847656 -4.585938 12.511719 -3.726562 10.410156 -3.726562 C 7.960938 -3.726562 6.367188 -4.964844 6.367188 -7.101562 L 1.402344 -7.101562 C 1.402344 -2.484375 4.839844 0.445312 10.441406 0.445312 Z M 10.441406 0.445312 "/></g></g></g><g fill="#130c0d" fill-opacity="1"><g transform="translate(134.262814, 266.638605)"><g><path d="M 3.09375 0.078125 C 2.5625 0.078125 2.050781 0 1.5625 -0.15625 C 1.070312 -0.320312 0.6875 -0.535156 0.40625 -0.796875 L 0.78125 -1.578125 C 1.050781 -1.335938 1.394531 -1.140625 1.8125 -0.984375 C 2.226562 -0.835938 2.65625 -0.765625 3.09375 -0.765625 C 3.664062 -0.765625 4.09375 -0.863281 4.375 -1.0625 C 4.664062 -1.257812 4.8125 -1.519531 4.8125 -1.84375 C 4.8125 -2.082031 4.734375 -2.273438 4.578125 -2.421875 C 4.421875 -2.578125 4.226562 -2.695312 4 -2.78125 C 3.769531 -2.863281 3.445312 -2.953125 3.03125 -3.046875 C 2.5 -3.171875 2.070312 -3.296875 1.75 -3.421875 C 1.425781 -3.554688 1.148438 -3.753906 0.921875 -4.015625 C 0.691406 -4.273438 0.578125 -4.628906 0.578125 -5.078125 C 0.578125 -5.453125 0.675781 -5.789062 0.875 -6.09375 C 1.070312 -6.394531 1.367188 -6.632812 1.765625 -6.8125 C 2.171875 -6.988281 2.671875 -7.078125 3.265625 -7.078125 C 3.671875 -7.078125 4.070312 -7.023438 4.46875 -6.921875 C 4.875 -6.816406 5.222656 -6.660156 5.515625 -6.453125 L 5.1875 -5.65625 C 4.882812 -5.84375 4.566406 -5.984375 4.234375 -6.078125 C 3.898438 -6.179688 3.578125 -6.234375 3.265625 -6.234375 C 2.691406 -6.234375 2.265625 -6.128906 1.984375 -5.921875 C 1.703125 -5.710938 1.5625 -5.445312 1.5625 -5.125 C 1.5625 -4.882812 1.640625 -4.6875 1.796875 -4.53125 C 1.960938 -4.382812 2.160156 -4.269531 2.390625 -4.1875 C 2.628906 -4.101562 2.953125 -4.015625 3.359375 -3.921875 C 3.890625 -3.796875 4.3125 -3.664062 4.625 -3.53125 C 4.945312 -3.40625 5.222656 -3.210938 5.453125 -2.953125 C 5.679688 -2.691406 5.796875 -2.34375 5.796875 -1.90625 C 5.796875 -1.539062 5.695312 -1.207031 5.5 -0.90625 C 5.300781 -0.601562 5 -0.363281 4.59375 -0.1875 C 4.1875 -0.0078125 3.6875 0.078125 3.09375 0.078125 Z M 3.09375 0.078125 "/></g></g></g><g fill="#130c0d" fill-opacity="1"><g transform="translate(146.260348, 266.638605)"><g><path d="M 4.203125 0.078125 C 3.503906 0.078125 2.867188 -0.0703125 2.296875 -0.375 C 1.734375 -0.6875 1.289062 -1.113281 0.96875 -1.65625 C 0.644531 -2.207031 0.484375 -2.820312 0.484375 -3.5 C 0.484375 -4.175781 0.644531 -4.785156 0.96875 -5.328125 C 1.289062 -5.878906 1.734375 -6.304688 2.296875 -6.609375 C 2.867188 -6.921875 3.503906 -7.078125 4.203125 -7.078125 C 4.910156 -7.078125 5.546875 -6.921875 6.109375 -6.609375 C 6.671875 -6.304688 7.113281 -5.878906 7.4375 -5.328125 C 7.757812 -4.785156 7.921875 -4.175781 7.921875 -3.5 C 7.921875 -2.820312 7.757812 -2.207031 7.4375 -1.65625 C 7.113281 -1.113281 6.671875 -0.6875 6.109375 -0.375 C 5.546875 -0.0703125 4.910156 0.078125 4.203125 0.078125 Z M 4.203125 -0.8125 C 4.722656 -0.8125 5.1875 -0.925781 5.59375 -1.15625 C 6 -1.394531 6.320312 -1.71875 6.5625 -2.125 C 6.800781 -2.53125 6.921875 -2.988281 6.921875 -3.5 C 6.921875 -4.007812 6.800781 -4.46875 6.5625 -4.875 C 6.320312 -5.28125 6 -5.597656 5.59375 -5.828125 C 5.1875 -6.066406 4.722656 -6.1875 4.203125 -6.1875 C 3.691406 -6.1875 3.226562 -6.066406 2.8125 -5.828125 C 2.394531 -5.597656 2.066406 -5.28125 1.828125 -4.875 C 1.597656 -4.46875 1.484375 -4.007812 1.484375 -3.5 C 1.484375 -2.988281 1.597656 -2.53125 1.828125 -2.125 C 2.066406 -1.71875 2.394531 -1.394531 2.8125 -1.15625 C 3.226562 -0.925781 3.691406 -0.8125 4.203125 -0.8125 Z M 4.203125 -0.8125 "/></g></g></g><g fill="#130c0d" fill-opacity="1"><g transform="translate(160.447022, 266.638605)"><g><path d="M 1.046875 -7 L 2.046875 -7 L 2.046875 -0.875 L 5.84375 -0.875 L 5.84375 0 L 1.046875 0 Z M 1.046875 -7 "/></g></g></g><g fill="#130c0d" fill-opacity="1"><g transform="translate(172.174661, 266.638605)"><g><path d="M 3.953125 0.078125 C 3.015625 0.078125 2.285156 -0.1875 1.765625 -0.71875 C 1.242188 -1.25 0.984375 -2.015625 0.984375 -3.015625 L 0.984375 -7 L 1.984375 -7 L 1.984375 -3.0625 C 1.984375 -1.5625 2.640625 -0.8125 3.953125 -0.8125 C 4.597656 -0.8125 5.085938 -0.992188 5.421875 -1.359375 C 5.765625 -1.734375 5.9375 -2.300781 5.9375 -3.0625 L 5.9375 -7 L 6.90625 -7 L 6.90625 -3.015625 C 6.90625 -2.015625 6.644531 -1.25 6.125 -0.71875 C 5.601562 -0.1875 4.878906 0.078125 3.953125 0.078125 Z M 3.953125 0.078125 "/></g></g></g><g fill="#130c0d" fill-opacity="1"><g transform="translate(185.871527, 266.638605)"><g><path d="M 2.4375 -6.125 L 0.046875 -6.125 L 0.046875 -7 L 5.828125 -7 L 5.828125 -6.125 L 3.4375 -6.125 L 3.4375 0 L 2.4375 0 Z M 2.4375 -6.125 "/></g></g></g><g fill="#130c0d" fill-opacity="1"><g transform="translate(197.529193, 266.638605)"><g><path d="M 1.046875 -7 L 2.046875 -7 L 2.046875 0 L 1.046875 0 Z M 1.046875 -7 "/></g></g></g><g fill="#130c0d" fill-opacity="1"><g transform="translate(206.41795, 266.638605)"><g><path d="M 4.203125 0.078125 C 3.503906 0.078125 2.867188 -0.0703125 2.296875 -0.375 C 1.734375 -0.6875 1.289062 -1.113281 0.96875 -1.65625 C 0.644531 -2.207031 0.484375 -2.820312 0.484375 -3.5 C 0.484375 -4.175781 0.644531 -4.785156 0.96875 -5.328125 C 1.289062 -5.878906 1.734375 -6.304688 2.296875 -6.609375 C 2.867188 -6.921875 3.503906 -7.078125 4.203125 -7.078125 C 4.910156 -7.078125 5.546875 -6.921875 6.109375 -6.609375 C 6.671875 -6.304688 7.113281 -5.878906 7.4375 -5.328125 C 7.757812 -4.785156 7.921875 -4.175781 7.921875 -3.5 C 7.921875 -2.820312 7.757812 -2.207031 7.4375 -1.65625 C 7.113281 -1.113281 6.671875 -0.6875 6.109375 -0.375 C 5.546875 -0.0703125 4.910156 0.078125 4.203125 0.078125 Z M 4.203125 -0.8125 C 4.722656 -0.8125 5.1875 -0.925781 5.59375 -1.15625 C 6 -1.394531 6.320312 -1.71875 6.5625 -2.125 C 6.800781 -2.53125 6.921875 -2.988281 6.921875 -3.5 C 6.921875 -4.007812 6.800781 -4.46875 6.5625 -4.875 C 6.320312 -5.28125 6 -5.597656 5.59375 -5.828125 C 5.1875 -6.066406 4.722656 -6.1875 4.203125 -6.1875 C 3.691406 -6.1875 3.226562 -6.066406 2.8125 -5.828125 C 2.394531 -5.597656 2.066406 -5.28125 1.828125 -4.875 C 1.597656 -4.46875 1.484375 -4.007812 1.484375 -3.5 C 1.484375 -2.988281 1.597656 -2.53125 1.828125 -2.125 C 2.066406 -1.71875 2.394531 -1.394531 2.8125 -1.15625 C 3.226562 -0.925781 3.691406 -0.8125 4.203125 -0.8125 Z M 4.203125 -0.8125 "/></g></g></g><g fill="#130c0d" fill-opacity="1"><g transform="translate(220.604623, 266.638605)"><g><path d="M 7.0625 -7 L 7.0625 0 L 6.25 0 L 2.046875 -5.21875 L 2.046875 0 L 1.046875 0 L 1.046875 -7 L 1.875 -7 L 6.0625 -1.78125 L 6.0625 -7 Z M 7.0625 -7 "/></g></g></g><g fill="#130c0d" fill-opacity="1"><g transform="translate(234.511414, 266.638605)"><g><path d="M 3.09375 0.078125 C 2.5625 0.078125 2.050781 0 1.5625 -0.15625 C 1.070312 -0.320312 0.6875 -0.535156 0.40625 -0.796875 L 0.78125 -1.578125 C 1.050781 -1.335938 1.394531 -1.140625 1.8125 -0.984375 C 2.226562 -0.835938 2.65625 -0.765625 3.09375 -0.765625 C 3.664062 -0.765625 4.09375 -0.863281 4.375 -1.0625 C 4.664062 -1.257812 4.8125 -1.519531 4.8125 -1.84375 C 4.8125 -2.082031 4.734375 -2.273438 4.578125 -2.421875 C 4.421875 -2.578125 4.226562 -2.695312 4 -2.78125 C 3.769531 -2.863281 3.445312 -2.953125 3.03125 -3.046875 C 2.5 -3.171875 2.070312 -3.296875 1.75 -3.421875 C 1.425781 -3.554688 1.148438 -3.753906 0.921875 -4.015625 C 0.691406 -4.273438 0.578125 -4.628906 0.578125 -5.078125 C 0.578125 -5.453125 0.675781 -5.789062 0.875 -6.09375 C 1.070312 -6.394531 1.367188 -6.632812 1.765625 -6.8125 C 2.171875 -6.988281 2.671875 -7.078125 3.265625 -7.078125 C 3.671875 -7.078125 4.070312 -7.023438 4.46875 -6.921875 C 4.875 -6.816406 5.222656 -6.660156 5.515625 -6.453125 L 5.1875 -5.65625 C 4.882812 -5.84375 4.566406 -5.984375 4.234375 -6.078125 C 3.898438 -6.179688 3.578125 -6.234375 3.265625 -6.234375 C 2.691406 -6.234375 2.265625 -6.128906 1.984375 -5.921875 C 1.703125 -5.710938 1.5625 -5.445312 1.5625 -5.125 C 1.5625 -4.882812 1.640625 -4.6875 1.796875 -4.53125 C 1.960938 -4.382812 2.160156 -4.269531 2.390625 -4.1875 C 2.628906 -4.101562 2.953125 -4.015625 3.359375 -3.921875 C 3.890625 -3.796875 4.3125 -3.664062 4.625 -3.53125 C 4.945312 -3.40625 5.222656 -3.210938 5.453125 -2.953125 C 5.679688 -2.691406 5.796875 -2.34375 5.796875 -1.90625 C 5.796875 -1.539062 5.695312 -1.207031 5.5 -0.90625 C 5.300781 -0.601562 5 -0.363281 4.59375 -0.1875 C 4.1875 -0.0078125 3.6875 0.078125 3.09375 0.078125 Z M 3.09375 0.078125 "/></g></g></g></svg>